<?xml version="1.0" encoding="UTF-8" standalone="no"?>
<!-- Created with Inkscape (http://www.inkscape.org/) -->

<svg
   version="1.1"
   id="svg1"
   width="1791.6008"
   height="674.53705"
   viewBox="0 0 1791.6008 674.53705"
   xmlns="http://www.w3.org/2000/svg"
   xmlns:svg="http://www.w3.org/2000/svg">
  <defs
     id="defs1">
    <clipPath
       clipPathUnits="userSpaceOnUse"
       id="clipPath3">
      <path
         d="M 0,582 H 1367 V 0 H 0 Z"
         transform="translate(-170.7207,-430.25001)"
         id="path3" />
    </clipPath>
    <clipPath
       clipPathUnits="userSpaceOnUse"
       id="clipPath5">
      <path
         d="M 0,582 H 1367 V 0 H 0 Z"
         transform="translate(-293.896,-420.99611)"
         id="path5" />
    </clipPath>
    <clipPath
       clipPathUnits="userSpaceOnUse"
       id="clipPath7">
      <path
         d="M 0,582 H 1367 V 0 H 0 Z"
         transform="translate(-389.13471,-408.43751)"
         id="path7" />
    </clipPath>
    <clipPath
       clipPathUnits="userSpaceOnUse"
       id="clipPath9">
      <path
         d="M 0,582 H 1367 V 0 H 0 Z"
         transform="translate(-497.28221,-431.11131)"
         id="path9" />
    </clipPath>
    <clipPath
       clipPathUnits="userSpaceOnUse"
       id="clipPath11">
      <path
         d="M 0,582 H 1367 V 0 H 0 Z"
         transform="translate(-112.9824,-254.5957)"
         id="path11" />
    </clipPath>
    <clipPath
       clipPathUnits="userSpaceOnUse"
       id="clipPath13">
      <path
         d="M 0,582 H 1367 V 0 H 0 Z"
         transform="translate(-250.7275,-296.0029)"
         id="path13" />
    </clipPath>
    <clipPath
       clipPathUnits="userSpaceOnUse"
       id="clipPath15">
      <path
         d="M 0,582 H 1367 V 0 H 0 Z"
         transform="translate(-420.64791,-336.76321)"
         id="path15" />
    </clipPath>
    <clipPath
       clipPathUnits="userSpaceOnUse"
       id="clipPath17">
      <path
         d="M 0,582 H 1367 V 0 H 0 Z"
         transform="translate(-518.36281,-354.58011)"
         id="path17" />
    </clipPath>
    <clipPath
       clipPathUnits="userSpaceOnUse"
       id="clipPath19">
      <path
         d="M 0,582 H 1367 V 0 H 0 Z"
         transform="translate(-694.56832,-393.78321)"
         id="path19" />
    </clipPath>
    <clipPath
       clipPathUnits="userSpaceOnUse"
       id="clipPath21">
      <path
         d="M 0,582 H 1367 V 0 H 0 Z"
         transform="translate(-756.00392,-289.80561)"
         id="path21" />
    </clipPath>
    <clipPath
       clipPathUnits="userSpaceOnUse"
       id="clipPath23">
      <path
         d="M 0,582 H 1367 V 0 H 0 Z"
         transform="translate(-865.37995,-312.73831)"
         id="path23" />
    </clipPath>
    <clipPath
       clipPathUnits="userSpaceOnUse"
       id="clipPath25">
      <path
         d="M 0,582 H 1367 V 0 H 0 Z"
         transform="translate(-1030.6816,-464.66501)"
         id="path25" />
    </clipPath>
    <clipPath
       clipPathUnits="userSpaceOnUse"
       id="clipPath27">
      <path
         d="M 0,582 H 1367 V 0 H 0 Z"
         transform="translate(-1149.8086,-473.41601)"
         id="path27" />
    </clipPath>
    <clipPath
       clipPathUnits="userSpaceOnUse"
       id="clipPath29">
      <path
         d="M 0,582 H 1367 V 0 H 0 Z"
         transform="translate(-397.38131,-137.76561)"
         id="path29" />
    </clipPath>
    <clipPath
       clipPathUnits="userSpaceOnUse"
       id="clipPath31">
      <path
         d="M 0,582 H 1367 V 0 H 0 Z"
         transform="translate(-573.60011,-183.6787)"
         id="path31" />
    </clipPath>
    <clipPath
       clipPathUnits="userSpaceOnUse"
       id="clipPath33">
      <path
         d="M 0,582 H 1367 V 0 H 0 Z"
         transform="translate(-721.69632,-98.3779)"
         id="path33" />
    </clipPath>
    <clipPath
       clipPathUnits="userSpaceOnUse"
       id="clipPath35">
      <path
         d="M 0,582 H 1367 V 0 H 0 Z"
         transform="translate(-903.62012,-136.5205)"
         id="path35" />
    </clipPath>
    <clipPath
       clipPathUnits="userSpaceOnUse"
       id="clipPath37">
      <path
         d="M 0,582 H 1367 V 0 H 0 Z"
         transform="translate(-998.48342,-270.1123)"
         id="path37" />
    </clipPath>
    <clipPath
       clipPathUnits="userSpaceOnUse"
       id="clipPath39">
      <path
         d="M 0,582 H 1367 V 0 H 0 Z"
         transform="translate(-1161.7666,-301.90131)"
         id="path39" />
    </clipPath>
    <clipPath
       clipPathUnits="userSpaceOnUse"
       id="clipPath41">
      <path
         d="M 0,582 H 1367 V 0 H 0 Z"
         transform="translate(-1303.3956,-306.73631)"
         id="path41" />
    </clipPath>
  </defs>
  <g
     id="layer-MC0"
     transform="translate(-22.491826,-82.974129)">
    <path
       id="path1"
       d="m 0,0 -0.582,-40.175 -22.53,-4.725 0.503,43.117 -30.119,45.566 22.531,4.724 19.473,-30.056 16.962,37.694 25.621,5.372 z"
       style="fill:#ffffff;fill-opacity:1;fill-rule:nonzero;stroke:none"
       transform="matrix(1.3333333,0,0,-1.3333333,95.614533,266.74867)" />
    <path
       id="path2"
       d="m 0,0 c -4.676,6.278 -13.13,8.135 -20.774,6.129 -2.805,-0.723 -5.219,-2.035 -5.937,-2.454 -4.67,-2.727 -10.271,-8.068 -12.557,-20.241 -1.231,-6.307 -1.381,-15.208 -0.086,-21.388 0.703,-3.347 1.683,-6.098 3.463,-8.818 4.526,-6.845 11.827,-9.616 19.783,-7.813 7.21,1.512 11.604,6.194 13.21,8.145 7.603,9.256 9.256,25.731 6.961,36.674 C 3.767,-8.35 2.795,-3.715 0,0 m 25.56,-35.365 c -1.475,-5.149 -3.246,-8.879 -4.081,-10.668 -2.66,-5.261 -8.725,-16.076 -22.545,-22.602 -1.952,-0.948 -6.784,-2.902 -12.707,-4.143 -16.737,-3.509 -28.054,1.107 -33.742,5.156 -4.753,3.439 -11.894,11.217 -14.971,25.893 -1.323,6.309 -1.325,12.087 -1.242,14.255 0.505,12.338 4.534,25.816 12.313,35.511 1.912,2.418 5.845,6.737 12.542,10.694 2.616,1.624 8.805,4.804 17.045,6.531 11.329,2.376 22.974,1.322 32.474,-4.884 12.331,-8.168 15.078,-20.629 16.104,-25.522 1.106,-5.278 2.656,-16.512 -1.19,-30.221"
       style="fill:#ffffff;fill-opacity:1;fill-rule:nonzero;stroke:none"
       transform="matrix(1.3333333,0,0,-1.3333333,227.6276,202.33333)"
       clip-path="url(#clipPath3)" />
    <path
       id="path4"
       d="m 0,0 c -0.108,-7.818 -0.785,-15.487 -4.693,-22.489 -5.706,-10.606 -17.826,-16.909 -29.026,-19.258 -2.189,-0.459 -8.01,-1.546 -14.696,-1.066 -12.004,0.845 -18.687,6.432 -21.638,10.249 -1.462,1.844 -3.742,5.667 -4.984,11.589 -1.026,4.893 -1.042,9.458 -1.038,14.567 l 0.721,52.973 22.789,4.779 -0.726,-58.082 c -0.068,-0.955 -0.118,-3.923 0.53,-7.013 0.351,-1.674 0.905,-3.035 1.846,-4.317 1.881,-2.563 6.682,-5.588 14.021,-4.049 4.506,0.944 10.47,3.27 12.748,13.559 0.394,1.965 0.87,3.543 0.961,7.595 l 1.39,58.758 22.659,4.75 z"
       style="fill:#ffffff;fill-opacity:1;fill-rule:nonzero;stroke:none"
       transform="matrix(1.3333333,0,0,-1.3333333,391.86133,214.67187)"
       clip-path="url(#clipPath5)" />
    <path
       id="path6"
       d="m 0,0 -22.145,-4.644 -30.123,54.572 -0.647,-61.023 -20.856,-4.373 1.798,95.269 22.402,4.697 30.436,-54.774 0.077,61.171 20.729,4.346 z"
       style="fill:#ffffff;fill-opacity:1;fill-rule:nonzero;stroke:none"
       transform="matrix(1.3333333,0,0,-1.3333333,532.28116,232.90944)"
       clip-path="url(#clipPath7)" />
    <path
       id="path8"
       d="m 0,0 -20.343,-4.265 0.082,7.947 c -0.129,-0.027 -2.774,-4.075 -4.51,-6.052 -2.299,-2.499 -7.547,-6.958 -16.172,-8.767 -9.812,-1.924 -21.078,-0.119 -29.257,5.559 -5.038,3.514 -13.446,11.562 -16.847,27.785 -2.834,13.518 -0.932,28.164 5.073,39.906 3.902,7.674 12.964,20.864 34.465,25.371 12.488,2.619 27.44,1.184 37.222,-7.652 3.487,-3.166 4.799,-5.581 7.133,-9.66 L -23.596,59.973 c -1.075,1.923 -2.205,4.106 -3.741,5.666 -2.397,2.455 -8.18,5.677 -16.549,3.924 -7.595,-1.593 -12.918,-6.338 -16.284,-13.362 -4.024,-8.37 -4.59,-19.778 -2.726,-28.662 0.35,-1.674 1.106,-5.279 3.311,-9.387 4.438,-8.342 12.422,-12.448 21.949,-10.451 6.437,1.35 12.667,5.613 15.267,11.803 1.263,2.953 1.645,6.258 1.925,9.409 l -18.926,-3.969 0.219,18.192 39.911,8.367 z"
       style="fill:#ffffff;fill-opacity:1;fill-rule:nonzero;stroke:none"
       transform="matrix(1.3333333,0,0,-1.3333333,663.04293,201.18493)"
       clip-path="url(#clipPath9)" />
    <path
       id="path10"
       d="m 0,0 c -2.12,3.252 -3.081,4.898 -4.436,6.462 -3.03,3.679 -11.534,10.933 -24.911,8.128 -5.902,-1.238 -16.309,-5.474 -23.122,-19.02 -3.639,-7.129 -9.283,-23.305 -5.035,-43.567 5.682,-26.124 22.065,-32.752 34.065,-30.236 4.131,0.866 11.711,3.892 18.095,12.625 5.296,7.066 7.05,13.389 9.025,21.608 l 32.301,-10.069 c -2.336,-7.472 -3.218,-10.121 -5.074,-14.002 -4.833,-10.255 -18.03,-32.534 -49.072,-39.246 -6.294,-1.32 -23.616,-3.925 -41.312,4.071 -19.476,8.649 -30.207,26.526 -34.579,47.38 -1.939,9.246 -2.128,17.011 -2.042,20.519 0.253,19.359 7.507,40.596 20.698,55.068 14.246,15.309 32.532,20.17 39.614,21.655 17.747,3.516 31.141,0.368 37.547,-1.78 5.692,-1.682 10.959,-4.275 15.646,-8.016 6.393,-5.025 9.95,-10.236 14.271,-17.134 z"
       style="fill:#ffffff;fill-opacity:1;fill-rule:nonzero;stroke:none"
       transform="matrix(1.3333333,0,0,-1.3333333,150.6432,436.53907)"
       clip-path="url(#clipPath11)" />
    <path
       id="path12"
       d="m 0,0 c -4.49,3.782 -8.951,4.49 -18.787,2.428 l -23.411,-4.908 -0.695,-39.784 29.116,6.105 c 0.786,0.164 4.286,1.104 7.311,2.354 5.809,2.656 9.084,6.628 10.921,12.559 1.681,5.692 1.012,9.865 0.517,12.225 C 4.643,-7.447 3.735,-3.119 0,0 m 38.2,-25.467 c -1.494,-4.626 -3.817,-9.222 -6.937,-12.955 -3.823,-4.293 -8.091,-7.446 -18.127,-13.453 l 34.173,-50.341 -37.771,-7.919 -28.732,45.937 -24.198,-5.073 -0.974,-52.165 -34.426,-7.219 2.354,145.489 61.183,12.828 c 2.95,0.619 5.704,1.196 8.697,1.617 4.017,0.432 13.231,1.543 23.6,-2.856 7.006,-3.049 18.192,-10.357 22.193,-29.439 0.866,-4.131 2.297,-13.894 -1.035,-24.451"
       style="fill:#ffffff;fill-opacity:1;fill-rule:nonzero;stroke:none"
       transform="matrix(1.3333333,0,0,-1.3333333,334.30333,381.32947)"
       clip-path="url(#clipPath13)" />
    <path
       id="path14"
       d="m 0,0 -65.904,-13.817 -0.447,-28.231 63.542,13.322 -0.384,-26.572 -63.542,-13.324 -0.619,-35.249 75.74,15.88 -0.179,-27.557 -110.166,-23.098 2.552,145.53 99.937,20.953 z"
       style="fill:#ffffff;fill-opacity:1;fill-rule:nonzero;stroke:none"
       transform="matrix(1.3333333,0,0,-1.3333333,560.86387,326.9824)"
       clip-path="url(#clipPath15)" />
    <path
       id="path16"
       d="m 0,0 -19.711,-63.691 35.411,7.424 z m 30.099,-108.288 -7.546,27.171 -51.149,-10.725 -9.57,-30.759 -36.395,-7.631 55.669,156.667 38.952,8.167 43.875,-135.796 z"
       style="fill:#ffffff;fill-opacity:1;fill-rule:nonzero;stroke:none"
       transform="matrix(1.3333333,0,0,-1.3333333,691.1504,303.22653)"
       clip-path="url(#clipPath17)" />
    <path
       id="path18"
       d="m 0,0 -36,-7.548 -1.712,-117.217 -34.821,-7.3 1.712,117.216 -38.165,-8.001 1.234,28.395 108.986,22.851 z"
       style="fill:#ffffff;fill-opacity:1;fill-rule:nonzero;stroke:none"
       transform="matrix(1.3333333,0,0,-1.3333333,926.09107,250.95573)"
       clip-path="url(#clipPath19)" />
    <path
       id="path20"
       d="m 0,0 -34.624,-7.259 1.962,145.406 34.624,7.26 z"
       style="fill:#ffffff;fill-opacity:1;fill-rule:nonzero;stroke:none"
       transform="matrix(1.3333333,0,0,-1.3333333,1008.0052,389.59253)"
       clip-path="url(#clipPath21)" />
    <path
       id="path22"
       d="m 0,0 -40.525,-8.497 -45.843,135.384 34.428,7.218 30.529,-99.573 29.275,112.112 36.395,7.63 z"
       style="fill:#ffffff;fill-opacity:1;fill-rule:nonzero;stroke:none"
       transform="matrix(1.3333333,0,0,-1.3333333,1153.8399,359.0156)"
       clip-path="url(#clipPath23)" />
    <path
       id="path24"
       d="m 0,0 -65.903,-13.818 -0.448,-28.231 63.542,13.323 -0.384,-26.573 -63.542,-13.323 -0.62,-35.249 75.741,15.88 -0.178,-27.558 -110.167,-23.097 2.553,145.53 99.936,20.953 z"
       style="fill:#ffffff;fill-opacity:1;fill-rule:nonzero;stroke:none"
       transform="matrix(1.3333333,0,0,-1.3333333,1374.2421,156.44667)"
       clip-path="url(#clipPath25)" />
    <path
       id="path26"
       d="m 0,0 c -1.282,2.196 -3.081,4.9 -5.108,6.734 -7.676,7.223 -20.968,7.927 -30.608,5.906 -1.77,-0.372 -5.311,-1.114 -9.154,-3.357 -6.898,-4.323 -8.456,-10.605 -7.796,-13.753 0.165,-0.786 0.774,-2.713 2.408,-4.629 4.22,-4.454 13.288,-4.608 26.196,-6.419 7.38,-0.918 15.041,-2.186 22.389,-3.932 7.546,-1.704 27.107,-6.844 31.974,-30.058 2.681,-12.788 -0.517,-24.959 -8.579,-35.481 -14.022,-18.342 -35.704,-22.683 -42.392,-24.085 -29.115,-6.105 -49.131,1.2 -59.208,8.124 -3.57,2.332 -5.877,4.518 -11.648,10.496 l 26.491,25.475 c 0.362,-0.745 2.563,-4.391 4.912,-6.773 5.213,-5.274 16.874,-12.893 34.776,-9.14 7.869,1.651 12.178,4.607 14.603,6.759 5.904,5.139 6.323,10.979 5.663,14.126 -1.146,4.484 -4.527,7.881 -13.771,9.846 -12.245,2.567 -25.018,2.764 -37.346,5.725 -6.282,1.557 -25.803,6.502 -30.298,27.944 -0.908,4.328 -1.739,13.191 2.421,23.716 5.166,12.584 16.668,26.291 46.766,32.602 5.116,1.072 28.764,5.824 47.43,-4.844 5.63,-3.337 10.482,-7.866 15.332,-12.394 z"
       style="fill:#ffffff;fill-opacity:1;fill-rule:nonzero;stroke:none"
       transform="matrix(1.3333333,0,0,-1.3333333,1533.0781,144.77867)"
       clip-path="url(#clipPath27)" />
    <path
       id="path28"
       d="m 0,0 c -4.373,3.363 -8.646,4.302 -10.525,4.519 -3.996,0.588 -7.673,0.632 -15.677,-1.045 l -17.177,-3.602 -1.328,-88.917 15.226,3.193 c 11.517,2.414 22.675,5.568 30.213,15.298 5.717,7.719 15.009,26.581 9.452,52.11 C 7.893,-7.514 4.096,-3.012 0,0 m 13.24,-99.107 c -9.569,-5.877 -19.001,-9.486 -41.45,-14.192 l -50.558,-10.6 2.535,144.391 54.462,11.418 c 3.709,0.778 7.346,0.93 10.941,1.276 15.049,1.118 24.035,-1.888 29.97,-4.924 9.549,-4.722 20.984,-14.551 26.181,-39.34 7.162,-34.157 -2.832,-70.078 -32.081,-88.029"
       style="fill:#ffffff;fill-opacity:1;fill-rule:nonzero;stroke:none"
       transform="matrix(1.3333333,0,0,-1.3333333,529.84173,592.31253)"
       clip-path="url(#clipPath29)" />
    <path
       id="path30"
       d="m 0,0 -65.393,-13.71 -0.444,-28.01 63.05,13.219 -0.382,-26.365 -63.05,-13.22 -0.615,-34.974 75.153,15.757 -0.176,-27.341 -109.314,-22.919 2.535,144.391 99.163,20.791 z"
       style="fill:#ffffff;fill-opacity:1;fill-rule:nonzero;stroke:none"
       transform="matrix(1.3333333,0,0,-1.3333333,764.80013,531.09507)"
       clip-path="url(#clipPath31)" />
    <path
       id="path32"
       d="m 0,0 -33.574,-7.04 -45.673,82.731 -0.982,-92.512 -31.622,-6.63 2.73,144.431 33.966,7.122 46.143,-83.038 0.119,92.738 31.428,6.589 z"
       style="fill:#ffffff;fill-opacity:1;fill-rule:nonzero;stroke:none"
       transform="matrix(1.3333333,0,0,-1.3333333,962.26173,644.82947)"
       clip-path="url(#clipPath33)" />
    <path
       id="path34"
       d="m 0,0 -32.014,-6.712 2.25,111.729 -29.187,-117.377 -28.891,-6.057 -26.577,107.314 -0.946,-113.085 -32.209,-6.752 1.949,144.267 50.948,10.682 21.291,-89.88 23.801,99.334 51.729,10.846 z"
       style="fill:#ffffff;fill-opacity:1;fill-rule:nonzero;stroke:none"
       transform="matrix(1.3333333,0,0,-1.3333333,1204.8268,593.97267)"
       clip-path="url(#clipPath35)" />
    <path
       id="path36"
       d="m 0,0 -19.56,-63.193 35.137,7.367 z m 29.863,-107.441 -7.485,26.958 -50.754,-10.641 -9.496,-30.52 -36.112,-7.571 55.239,155.442 38.65,8.103 43.533,-134.731 z"
       style="fill:#ffffff;fill-opacity:1;fill-rule:nonzero;stroke:none"
       transform="matrix(1.3333333,0,0,-1.3333333,1331.3112,415.85027)"
       clip-path="url(#clipPath37)" />
    <path
       id="path38"
       d="m 0,0 c -4.454,3.753 -8.881,4.455 -18.641,2.408 l -23.229,-4.87 -0.691,-39.472 28.89,6.058 c 0.781,0.163 4.254,1.094 7.254,2.335 5.766,2.635 9.015,6.576 10.837,12.461 1.669,5.648 1.005,9.788 0.514,12.13 C 4.606,-7.389 3.706,-3.095 0,0 m 37.904,-25.268 c -1.483,-4.589 -3.788,-9.148 -6.883,-12.852 -3.793,-4.261 -8.029,-7.391 -17.987,-13.35 l 33.907,-49.945 -37.479,-7.858 -28.508,45.575 -24.01,-5.033 -0.968,-51.756 -34.16,-7.162 2.339,144.349 60.709,12.729 c 2.928,0.613 5.66,1.187 8.629,1.606 3.986,0.428 13.129,1.53 23.418,-2.833 6.951,-3.026 18.05,-10.275 22.02,-29.209 0.859,-4.098 2.279,-13.786 -1.027,-24.261"
       style="fill:#ffffff;fill-opacity:1;fill-rule:nonzero;stroke:none"
       transform="matrix(1.3333333,0,0,-1.3333333,1549.0221,373.46493)"
       clip-path="url(#clipPath39)" />
    <path
       id="path40"
       d="m 0,0 57.174,-74.411 -36.112,-7.571 -40.919,55.199 -21.319,-29.531 -0.423,-38.806 -32.794,-6.875 2.144,144.309 32.6,6.834 -0.821,-59.263 48.255,69.209 40.992,8.595 z"
       style="fill:#ffffff;fill-opacity:1;fill-rule:nonzero;stroke:none"
       transform="matrix(1.3333333,0,0,-1.3333333,1737.8607,367.01827)"
       clip-path="url(#clipPath41)" />
  </g>
</svg>
